<svg width="24" height="24" viewBox="0 0 24 24" fill="currentColor" xmlns="http://www.w3.org/2000/svg">
<path fill-rule="evenodd" clip-rule="evenodd" d="M19.9 12.0004C19.9001 11.7699 19.8122 11.5395 19.6364 11.3637L15.6364 7.3637C15.2849 7.01223 14.7151 7.01223 14.3636 7.3637C14.0121 7.71517 14.0121 8.28502 14.3636 8.63649L16.8282 11.1011L4.99999 11.1011C4.50293 11.1011 4.09999 11.504 4.09999 12.0011C4.09999 12.4981 4.50293 12.9011 4.99999 12.9011L16.8262 12.9011L14.3636 15.3637C14.0121 15.7152 14.0121 16.285 14.3636 16.6365C14.7151 16.988 15.2849 16.988 15.6364 16.6365L19.6109 12.662C19.7887 12.4976 19.9 12.2623 19.9 12.0011C19.9 12.0008 19.9 12.0006 19.9 12.0004Z" />
</svg>
