<svg width="71" height="71" viewBox="0 0 71 71" fill="none" xmlns="http://www.w3.org/2000/svg">
<path fill-rule="evenodd" clip-rule="evenodd" d="M23.9108 22.9661C23.9108 16.6834 29.0294 11.5835 35.3518 11.5835C41.6743 11.5835 46.7928 16.6834 46.7928 22.9661V31.9055H23.9108V22.9661ZM22.2441 31.9055V22.9661C22.2441 15.7555 28.1164 9.91687 35.3518 9.91687C42.5872 9.91687 48.4595 15.7555 48.4595 22.9661V31.9055H55.7772C57.1579 31.9055 58.2772 33.0248 58.2772 34.4055V57.9472C58.2772 59.3279 57.1579 60.4472 55.7772 60.4472H14.9229C13.5421 60.4472 12.4229 59.3279 12.4229 57.9472V34.4055C12.4229 33.0248 13.5421 31.9055 14.9229 31.9055H22.2441ZM14.0895 34.4055C14.0895 33.9453 14.4626 33.5722 14.9229 33.5722H55.7772C56.2374 33.5722 56.6105 33.9453 56.6105 34.4055V57.9472C56.6105 58.4074 56.2374 58.7805 55.7772 58.7805H14.9229C14.4626 58.7805 14.0895 58.4074 14.0895 57.9472V34.4055Z" fill="white"/>
</svg>
