<svg width="24" height="24" viewBox="0 0 24 24" fill="currentColor" xmlns="http://www.w3.org/2000/svg">
<path fill-rule="evenodd" clip-rule="evenodd" d="M15.9342 3.56972C15.9342 3.25932 15.6825 3.00769 15.3721 3.00769C15.0617 3.00769 14.8101 3.25932 14.8101 3.56972V4.6936H9.19003V3.56972C9.19003 3.25932 8.9384 3.00769 8.62801 3.00769C8.31761 3.00769 8.06598 3.25932 8.06598 3.56972V4.6936H6.66078C5.10879 4.6936 3.85065 5.95174 3.85065 7.50373V10.3139V18.1822C3.85065 19.7342 5.10878 20.9924 6.66078 20.9924H17.3393C18.8913 20.9924 20.1494 19.7342 20.1494 18.1822V10.3139V7.50373C20.1494 5.95174 18.8913 4.6936 17.3393 4.6936H15.9342V3.56972ZM19.0254 9.75183V7.50373C19.0254 6.57254 18.2705 5.81766 17.3393 5.81766H15.9342V6.94187C15.9342 7.25227 15.6825 7.5039 15.3721 7.5039C15.0617 7.5039 14.8101 7.25227 14.8101 6.94187V5.81766H9.19003V6.94187C9.19003 7.25227 8.9384 7.5039 8.62801 7.5039C8.31761 7.5039 8.06598 7.25227 8.06598 6.94187V5.81766H6.66078C5.72958 5.81766 4.9747 6.57254 4.9747 7.50373V9.75183H19.0254ZM4.9747 10.8759H19.0254V18.1822C19.0254 19.1134 18.2705 19.8683 17.3393 19.8683H6.66078C5.72958 19.8683 4.9747 19.1134 4.9747 18.1822V10.8759Z"/>
<path d="M14.8101 4.6936V4.8436C14.893 4.8436 14.9601 4.77645 14.9601 4.6936H14.8101ZM9.19003 4.6936H9.04003C9.04003 4.77645 9.10719 4.8436 9.19003 4.8436V4.6936ZM8.06598 4.6936V4.8436C8.14882 4.8436 8.21598 4.77645 8.21598 4.6936H8.06598ZM15.9342 4.6936H15.7842C15.7842 4.77645 15.8513 4.8436 15.9342 4.8436V4.6936ZM19.0254 9.75183V9.90183C19.1082 9.90183 19.1754 9.83467 19.1754 9.75183H19.0254ZM15.9342 5.81766V5.66766C15.8513 5.66766 15.7842 5.73481 15.7842 5.81766H15.9342ZM14.8101 5.81766H14.9601C14.9601 5.73481 14.893 5.66766 14.8101 5.66766V5.81766ZM9.19003 5.81766V5.66766C9.10719 5.66766 9.04003 5.73481 9.04003 5.81766H9.19003ZM8.06598 5.81766H8.21598C8.21598 5.73481 8.14882 5.66766 8.06598 5.66766V5.81766ZM4.9747 9.75183H4.8247C4.8247 9.83467 4.89186 9.90183 4.9747 9.90183V9.75183ZM19.0254 10.8759H19.1754C19.1754 10.793 19.1082 10.7259 19.0254 10.7259V10.8759ZM4.9747 10.8759V10.7259C4.89186 10.7259 4.8247 10.793 4.8247 10.8759H4.9747ZM15.3721 3.15769C15.5997 3.15769 15.7842 3.34216 15.7842 3.56972H16.0842C16.0842 3.17648 15.7654 2.85769 15.3721 2.85769V3.15769ZM14.9601 3.56972C14.9601 3.34216 15.1446 3.15769 15.3721 3.15769V2.85769C14.9789 2.85769 14.6601 3.17648 14.6601 3.56972H14.9601ZM14.9601 4.6936V3.56972H14.6601V4.6936H14.9601ZM9.19003 4.8436H14.8101V4.5436H9.19003V4.8436ZM9.04003 3.56972V4.6936H9.34003V3.56972H9.04003ZM8.62801 3.15769C8.85556 3.15769 9.04003 3.34216 9.04003 3.56972H9.34003C9.34003 3.17648 9.02125 2.85769 8.62801 2.85769V3.15769ZM8.21598 3.56972C8.21598 3.34216 8.40045 3.15769 8.62801 3.15769V2.85769C8.23476 2.85769 7.91598 3.17648 7.91598 3.56972H8.21598ZM8.21598 4.6936V3.56972H7.91598V4.6936H8.21598ZM6.66078 4.8436H8.06598V4.5436H6.66078V4.8436ZM4.00065 7.50373C4.00065 6.03458 5.19163 4.8436 6.66078 4.8436V4.5436C5.02594 4.5436 3.70065 5.8689 3.70065 7.50373H4.00065ZM4.00065 10.3139V7.50373H3.70065V10.3139H4.00065ZM4.00065 18.1822V10.3139H3.70065V18.1822H4.00065ZM6.66078 20.8424C5.19163 20.8424 4.00065 19.6514 4.00065 18.1822H3.70065C3.70065 19.8171 5.02594 21.1424 6.66078 21.1424V20.8424ZM17.3393 20.8424H6.66078V21.1424H17.3393V20.8424ZM19.9994 18.1822C19.9994 19.6514 18.8084 20.8424 17.3393 20.8424V21.1424C18.9741 21.1424 20.2994 19.8171 20.2994 18.1822H19.9994ZM19.9994 10.3139V18.1822H20.2994V10.3139H19.9994ZM19.9994 7.50373V10.3139H20.2994V7.50373H19.9994ZM17.3393 4.8436C18.8084 4.8436 19.9994 6.03458 19.9994 7.50373H20.2994C20.2994 5.8689 18.9741 4.5436 17.3393 4.5436V4.8436ZM15.9342 4.8436H17.3393V4.5436H15.9342V4.8436ZM15.7842 3.56972V4.6936H16.0842V3.56972H15.7842ZM18.8754 7.50373V9.75183H19.1754V7.50373H18.8754ZM17.3393 5.96766C18.1876 5.96766 18.8754 6.65538 18.8754 7.50373H19.1754C19.1754 6.4897 18.3533 5.66766 17.3393 5.66766V5.96766ZM15.9342 5.96766H17.3393V5.66766H15.9342V5.96766ZM16.0842 6.94187V5.81766H15.7842V6.94187H16.0842ZM15.3721 7.6539C15.7654 7.6539 16.0842 7.33511 16.0842 6.94187H15.7842C15.7842 7.16943 15.5997 7.3539 15.3721 7.3539V7.6539ZM14.6601 6.94187C14.6601 7.33511 14.9789 7.6539 15.3721 7.6539V7.3539C15.1446 7.3539 14.9601 7.16943 14.9601 6.94187H14.6601ZM14.6601 5.81766V6.94187H14.9601V5.81766H14.6601ZM9.19003 5.96766H14.8101V5.66766H9.19003V5.96766ZM9.34003 6.94187V5.81766H9.04003V6.94187H9.34003ZM8.62801 7.6539C9.02125 7.6539 9.34003 7.33511 9.34003 6.94187H9.04003C9.04003 7.16943 8.85556 7.3539 8.62801 7.3539V7.6539ZM7.91598 6.94187C7.91598 7.33511 8.23476 7.6539 8.62801 7.6539V7.3539C8.40045 7.3539 8.21598 7.16943 8.21598 6.94187H7.91598ZM7.91598 5.81766V6.94187H8.21598V5.81766H7.91598ZM6.66078 5.96766H8.06598V5.66766H6.66078V5.96766ZM5.1247 7.50373C5.1247 6.65538 5.81242 5.96766 6.66078 5.96766V5.66766C5.64674 5.66766 4.8247 6.4897 4.8247 7.50373H5.1247ZM5.1247 9.75183V7.50373H4.8247V9.75183H5.1247ZM4.9747 9.90183H19.0254V9.60183H4.9747V9.90183ZM19.0254 10.7259H4.9747V11.0259H19.0254V10.7259ZM18.8754 10.8759V18.1822H19.1754V10.8759H18.8754ZM18.8754 18.1822C18.8754 19.0306 18.1876 19.7183 17.3393 19.7183V20.0183C18.3533 20.0183 19.1754 19.1963 19.1754 18.1822H18.8754ZM17.3393 19.7183H6.66078V20.0183H17.3393V19.7183ZM6.66078 19.7183C5.81242 19.7183 5.1247 19.0306 5.1247 18.1822H4.8247C4.8247 19.1963 5.64674 20.0183 6.66078 20.0183V19.7183ZM5.1247 18.1822V10.8759H4.8247V18.1822H5.1247Z"/>
</svg>
