<svg width="24" height="24" viewBox="0 0 24 24" fill="currentColor" xmlns="http://www.w3.org/2000/svg">
<path d="M24 12C24 18.6274 18.6274 24 12 24C5.37258 24 0 18.6274 0 12C0 5.37258 5.37258 0 12 0C18.6274 0 24 5.37258 24 12ZM0.6 12C0.6 18.296 5.70395 23.4 12 23.4C18.296 23.4 23.4 18.296 23.4 12C23.4 5.70395 18.296 0.6 12 0.6C5.70395 0.6 0.6 5.70395 0.6 12Z" fill="currentColor"/>
<path d="M8.7204 15.3333C8.52513 15.1381 8.52513 14.8215 8.7204 14.6262L14.613 8.73368C14.8082 8.53842 15.1248 8.53842 15.3201 8.73368C15.5153 8.92895 15.5153 9.24553 15.3201 9.44079L9.4275 15.3333C9.23224 15.5286 8.91566 15.5286 8.7204 15.3333Z" fill="currentColor"/>
<path d="M8.67995 8.66668C8.87522 8.47142 9.1918 8.47142 9.38706 8.66668L15.2796 14.5592C15.4749 14.7545 15.4749 15.0711 15.2796 15.2663C15.0844 15.4616 14.7678 15.4616 14.5725 15.2663L8.67995 9.37379C8.48469 9.17852 8.48469 8.86194 8.67995 8.66668Z" fill="currentColor"/>
</svg>
