<svg width="24" height="24" viewBox="0 0 24 24" fill="currentColor" xmlns="http://www.w3.org/2000/svg">
    <path d="M24 12C24 5.37258 18.6274 0 12 0C5.37258 0 0 5.37258 0 12C0 18.6274 5.37258 24 12 24C18.6274 24 24 18.6274 24 12Z" />
    <path fill-rule="evenodd" clip-rule="evenodd" d="M17.7366 8.07108C18.0861 8.43426 18.088 9.02526 17.741 9.39102L11.5421 15.9243C11.3747 16.1008 11.147 16.2 10.9094 16.2C10.6718 16.2 10.4441 16.1008 10.2767 15.9244L7.45901 12.9547C7.11197 12.5889 7.11389 11.9979 7.46339 11.6347C7.81283 11.2715 8.37743 11.2736 8.72447 11.6393L10.9094 13.9421L16.4755 8.0757C16.8226 7.70994 17.3872 7.70784 17.7366 8.07108Z" fill="white"/>
</svg>
