<svg width="24" height="24" viewBox="0 0 24 24" fill="currentColor" xmlns="http://www.w3.org/2000/svg">
<path fill-rule="evenodd" clip-rule="evenodd" d="M15 1C15.5523 1 16 1.44772 16 2C16 2.55228 15.5523 3 15 3H4V16C4 16.5523 3.55228 17 3 17C2.44772 17 2 16.5523 2 16V3C2 1.9 2.9 1 4 1H15ZM8 5H19C20.1 5 21 5.9 21 7V21C21 22.1 20.1 23 19 23H8C6.9 23 6 22.1 6 21V7C6 5.9 6.9 5 8 5ZM9 7H18C18.8067 7 19 7.14444 19 8V20C19 20.8556 18.8067 21 18 21H9C8.19333 21 8 20.8556 8 20V8C8 7.14444 8.19333 7 9 7Z"/>
</svg>
