<svg width="24" height="24" viewBox="0 0 24 24" fill="currentColor" xmlns="http://www.w3.org/2000/svg">
<path fill-rule="evenodd" clip-rule="evenodd" d="M13.5254 22.1049C13.8183 22.3978 14.2932 22.3978 14.5861 22.1049L18.1216 18.5694C18.4145 18.2765 18.4145 17.8016 18.1216 17.5087L14.5861 13.9732C14.2932 13.6803 13.8183 13.6803 13.5254 13.9732C13.2325 14.2661 13.2325 14.741 13.5254 15.0338L16.5306 18.0391L13.5254 21.0443C13.2325 21.3371 13.2325 21.812 13.5254 22.1049Z"/>
<path fill-rule="evenodd" clip-rule="evenodd" d="M12.2465 17.29C9.24196 17.3997 6.52701 15.5091 5.58786 12.653C4.6487 9.79686 5.71177 6.66391 8.19512 4.96911C10.6785 3.27432 13.9834 3.4263 16.3007 5.34186C18.618 7.25742 19.3891 10.4747 18.1918 13.2326C18.0268 13.6125 18.2011 14.0543 18.581 14.2192C18.961 14.3842 19.4027 14.2099 19.5677 13.8299C21.0311 10.4592 20.0887 6.52696 17.2564 4.18572C14.4241 1.84448 10.3848 1.65873 7.34957 3.73014C4.31436 5.80156 3.01506 9.63072 4.16292 13.1215C5.30956 16.6086 8.62202 18.9182 12.2896 18.7894L17.5782 18.7567C17.9924 18.7542 18.3261 18.4163 18.3236 18.0021C18.321 17.5879 17.9832 17.2542 17.569 17.2568L12.2693 17.2895C12.2617 17.2895 12.2541 17.2897 12.2465 17.29Z"/>
<path fill-rule="evenodd" clip-rule="evenodd" d="M12.5016 5.72583C12.0874 5.72583 11.7516 6.06162 11.7516 6.47583V11.2348L8.77305 12.7077C8.40176 12.8913 8.24961 13.3412 8.43322 13.7125C8.61682 14.0838 9.06666 14.2359 9.43796 14.0523L12.8341 12.3729C13.0898 12.2465 13.2516 11.9859 13.2516 11.7006L13.2516 6.47583C13.2516 6.06162 12.9158 5.72583 12.5016 5.72583Z"/>
</svg>
