<svg width="24" height="24" viewBox="0 0 24 24" fill="currentColor" xmlns="http://www.w3.org/2000/svg">
<path fill-rule="evenodd" clip-rule="evenodd" d="M7.21967 7.46967C6.92678 7.76256 6.92678 8.23744 7.21967 8.53033L10.6893 12L7.21967 15.4697C6.92678 15.7626 6.92678 16.2374 7.21967 16.5303C7.51256 16.8232 7.98744 16.8232 8.28033 16.5303L12.2803 12.5303C12.5732 12.2374 12.5732 11.7626 12.2803 11.4697L8.28033 7.46967C7.98744 7.17678 7.51256 7.17678 7.21967 7.46967Z" fill="currentColor"/>
<path fill-rule="evenodd" clip-rule="evenodd" d="M11.4697 7.46967C11.1768 7.76256 11.1768 8.23744 11.4697 8.53033L14.9393 12L11.4697 15.4697C11.1768 15.7626 11.1768 16.2374 11.4697 16.5303C11.7626 16.8232 12.2374 16.8232 12.5303 16.5303L16.5303 12.5303C16.8232 12.2374 16.8232 11.7626 16.5303 11.4697L12.5303 7.46967C12.2374 7.17678 11.7626 7.17678 11.4697 7.46967Z" fill="currentColor"/>
</svg>
