<svg width="24" height="24" viewBox="0 0 24 24" fill="currentColor" xmlns="http://www.w3.org/2000/svg">
<path d="M6.75 15.0001C6.75 14.5859 6.41421 14.2501 6 14.2501C5.58579 14.2501 5.25 14.5859 5.25 15.0001H6.75ZM18.75 15.0001C18.75 14.5859 18.4142 14.2501 18 14.2501C17.5858 14.2501 17.25 14.5859 17.25 15.0001H18.75ZM15.197 12.197C15.4899 11.9041 15.4899 11.4292 15.197 11.1363C14.9041 10.8434 14.4293 10.8434 14.1364 11.1363L15.197 12.197ZM12 14.3333L11.4697 14.8637C11.7626 15.1566 12.2375 15.1566 12.5304 14.8637L12 14.3333ZM9.8637 11.1363C9.57081 10.8434 9.09594 10.8434 8.80304 11.1363C8.51015 11.4292 8.51015 11.9041 8.80304 12.197L9.8637 11.1363ZM12.75 5C12.75 4.58578 12.4142 4.25 12 4.25C11.5858 4.25 11.25 4.58579 11.25 5L12.75 5ZM5.25 15.0001V17.0001H6.75V15.0001H5.25ZM5.25 17.0001C5.25 18.1507 6.18274 19.0834 7.33333 19.0834V17.5834C7.01117 17.5834 6.75 17.3222 6.75 17.0001H5.25ZM7.33333 19.0834H16.6667V17.5834H7.33333V19.0834ZM16.6667 19.0834C17.8173 19.0834 18.75 18.1507 18.75 17.0001H17.25C17.25 17.3222 16.9888 17.5834 16.6667 17.5834V19.0834ZM18.75 17.0001V15.0001H17.25V17.0001H18.75ZM14.1364 11.1363L11.4697 13.803L12.5304 14.8637L15.197 12.197L14.1364 11.1363ZM12.5304 13.803L9.8637 11.1363L8.80304 12.197L11.4697 14.8637L12.5304 13.803ZM12.75 14.3333L12.75 5L11.25 5L11.25 14.3333L12.75 14.3333Z"/>
</svg>
