<svg width="22" height="22" viewBox="0 0 22 22" fill="none" xmlns="http://www.w3.org/2000/svg">
<path fill-rule="evenodd" clip-rule="evenodd" d="M8.39476 0.250005L8.50001 0.25001L8.60526 0.250005C9.89914 0.249913 10.6641 0.249859 11.3169 0.379709C13.8776 0.889068 15.9037 2.82564 16.5417 5.33576C16.9519 5.38316 17.3126 5.4567 17.6487 5.57079C19.4281 6.1748 20.8253 7.572 21.4293 9.35133C21.7505 10.2976 21.7503 11.4395 21.75 13.3291L21.75 13.5V13.5C21.75 13.9142 21.4142 14.25 21 14.25C20.5858 14.25 20.25 13.9142 20.25 13.5V13.5C20.25 11.3858 20.24 10.5144 20.0089 9.83349C19.5548 8.49574 18.5043 7.44529 17.1666 6.99119C16.4857 6.76007 15.6143 6.75003 13.5 6.75003C11.3858 6.75003 10.5144 6.76007 9.83349 6.99119C8.49574 7.44529 7.44529 8.49574 6.99119 9.83349C6.76007 10.5144 6.75003 11.3858 6.75003 13.5C6.75003 15.6143 6.76007 16.4857 6.99119 17.1666C7.44529 18.5043 8.49574 19.5548 9.83349 20.0089C10.5144 20.24 11.3858 20.25 13.5 20.25H13.5C13.9142 20.25 14.25 20.5858 14.25 21C14.25 21.4142 13.9142 21.75 13.5 21.75H13.5L13.3291 21.75C11.4395 21.7503 10.2976 21.7505 9.35133 21.4293C7.572 20.8253 6.1748 19.4281 5.57079 17.6487C5.4567 17.3126 5.38316 16.9519 5.33576 16.5417C2.82564 15.9037 0.889068 13.8776 0.379709 11.3169C0.249859 10.6641 0.249913 9.89914 0.250005 8.60526L0.25001 8.50001L0.250005 8.39476C0.249913 7.10088 0.249859 6.33595 0.379709 5.68315C0.912329 3.00549 3.00549 0.912329 5.68315 0.379709C6.33595 0.249859 7.10088 0.249913 8.39476 0.250005ZM11.0242 1.85089C12.8597 2.21598 14.3421 3.52384 14.9516 5.25479C14.5654 5.24989 14.1413 5.24995 13.6709 5.25002L13.5 5.25003L13.3291 5.25002C11.4395 5.24974 10.2976 5.24957 9.35133 5.57079C7.572 6.1748 6.1748 7.572 5.57079 9.35133C5.24957 10.2976 5.24974 11.4395 5.25002 13.3291L5.25003 13.5L5.25002 13.6709C5.24995 14.1413 5.24989 14.5654 5.25479 14.9516C3.52384 14.3421 2.21598 12.8597 1.85089 11.0242C1.75364 10.5354 1.75001 9.92992 1.75001 8.50001C1.75001 7.0701 1.75364 6.46467 1.85089 5.97579C2.26515 3.89316 3.89316 2.26515 5.97579 1.85089C6.46467 1.75364 7.0701 1.75001 8.50001 1.75001C9.92992 1.75001 10.5354 1.75364 11.0242 1.85089ZM11.0001 16.83V12C11.0001 11.59 11.3401 11.25 11.7501 11.25H16.5801C16.9901 11.25 17.3301 11.59 17.3301 12C17.3301 12.41 16.9901 12.75 16.5801 12.75H13.5601L21.2801 20.47C21.5701 20.76 21.5701 21.24 21.2801 21.53C20.9901 21.82 20.5101 21.82 20.2201 21.53L12.5001 13.81V16.83C12.5001 17.24 12.1601 17.58 11.7501 17.58C11.3401 17.58 11.0001 17.24 11.0001 16.83Z" fill="white"/>
</svg>
