<svg width="24" height="24" viewBox="0 0 24 24" fill="currentColor" xmlns="http://www.w3.org/2000/svg">
<path d="M12 6.00001C15.3705 6.00001 18.4167 7.68458 20.2103 10.4277C20.6366 11.0798 20.6393 11.9215 20.2122 12.573C19.9043 13.0427 19.558 13.4804 19.1794 13.884C18.7861 14.3032 18.7568 14.9668 19.1632 15.3732C19.5323 15.7423 20.1282 15.7633 20.4914 15.3885C21.2058 14.6512 21.8251 13.8235 22.3289 12.9205C22.8213 12.0381 22.8199 10.9624 22.3279 10.0797C20.3072 6.45419 16.4416 4.00001 12 4.00001C11.3415 4.00001 10.6965 4.05377 10.0677 4.15712C9.27493 4.28742 9.03538 5.24539 9.6035 5.81351C9.85746 6.06747 10.221 6.17412 10.5758 6.11861C11.0428 6.04554 11.5164 6.00001 12 6.00001ZM12 7.00001C11.5219 7.00001 11.3571 7.56707 11.6951 7.90513L13 9.21001C13.57 9.46001 14.03 9.92001 14.28 10.49L15.5852 11.7952C15.919 12.129 16.49 11.9621 16.49 11.49C16.5 9.01001 14.48 7.00001 12 7.00001ZM2.71241 3.16262C2.32408 3.55371 2.32519 4.18521 2.7149 4.57492L4.69 6.55001C3.46582 7.51134 2.43341 8.70956 1.66903 10.0811C1.17779 10.9626 1.17983 12.0367 1.67094 12.9182C3.69132 16.5449 7.55752 19 12 19C13.52 19 14.98 18.71 16.32 18.18L19.0349 20.8949C19.4243 21.2843 20.0557 21.2843 20.4451 20.8949C20.8344 20.5056 20.8345 19.8744 20.4453 19.4849L4.1299 3.16032C3.73827 2.76847 3.10276 2.7695 2.71241 3.16262ZM9.51 11.37L12.12 13.98C12.08 13.99 12.04 14 12 14C10.62 14 9.5 12.88 9.5 11.5C9.5 11.45 9.51 11.42 9.51 11.37ZM6.11 7.97001L7.86 9.72001C7.63 10.27 7.5 10.87 7.5 11.5C7.5 13.98 9.52 16 12 16C12.63 16 13.23 15.87 13.77 15.64L14.75 16.62C13.87 16.86 12.95 17 12 17C8.87881 17 6.03568 15.5554 4.20788 13.1634C3.45777 12.1817 3.4577 10.8178 4.21413 9.84103C4.76444 9.1304 5.40496 8.50607 6.11 7.97001Z" />
</svg>
