<svg width="24" height="24" viewBox="0 0 24 24" fill="currentColor" xmlns="http://www.w3.org/2000/svg">
<path d="M12 6C15.1211 6 17.9642 7.44451 19.792 9.83649C20.5422 10.8182 20.5422 12.1818 19.792 13.1635C17.9642 15.5555 15.1211 17 12 17C8.87888 17 6.03581 15.5555 4.208 13.1635C3.45781 12.1818 3.45781 10.8182 4.208 9.83649C6.03581 7.44451 8.87888 6 12 6ZM12 4C7.55982 4 3.69532 6.45258 1.67407 10.0762C1.18061 10.9608 1.18061 12.0392 1.67407 12.9238C3.69532 16.5474 7.55982 19 12 19C16.4402 19 20.3047 16.5474 22.3259 12.9238C22.8194 12.0392 22.8194 10.9608 22.3259 10.0762C20.3047 6.45258 16.4402 4 12 4ZM12 9C13.38 9 14.5 10.12 14.5 11.5C14.5 12.88 13.38 14 12 14C10.62 14 9.5 12.88 9.5 11.5C9.5 10.12 10.62 9 12 9ZM12 7C9.52 7 7.5 9.02 7.5 11.5C7.5 13.98 9.52 16 12 16C14.48 16 16.5 13.98 16.5 11.5C16.5 9.02 14.48 7 12 7Z" />
</svg>
