<svg width="24" height="24" viewBox="0 0 24 24" fill="currentColor" xmlns="http://www.w3.org/2000/svg">
    <path d="M8.5 16.5C8.5 16.0029 8.90294 15.6 9.4 15.6H14.6C15.0971 15.6 15.5 16.0029 15.5 16.5C15.5 16.9971 15.0971 17.4 14.6 17.4H9.4C8.90294 17.4 8.5 16.9971 8.5 16.5ZM8.5 12.9C8.5 12.4029 8.90294 12 9.4 12H14.6C15.0971 12 15.5 12.4029 15.5 12.9C15.5 13.3971 15.0971 13.8 14.6 13.8H9.4C8.90294 13.8 8.5 13.3971 8.5 12.9ZM14.0445 3.30292C13.8562 3.10926 13.5976 3 13.3275 3H6.75C5.7875 3 5 3.81 5 4.8V19.2C5 20.19 5.77875 21 6.74125 21H17.25C18.2125 21 19 20.19 19 19.2V8.80599C19 8.54565 18.8985 8.29557 18.717 8.10891L14.0445 3.30292ZM17.25 19.2H6.75V4.8H12.875V8.3C12.875 8.85228 13.3227 9.3 13.875 9.3H17.25V19.2Z" />
</svg>
