<svg width="24" height="24" viewBox="0 0 24 24" fill="currentColor" xmlns="http://www.w3.org/2000/svg">
    <path fill-rule="evenodd" clip-rule="evenodd" d="M2.25 12C2.25 6.61522 6.61522 2.25 12 2.25C17.3848 2.25 21.75 6.61522 21.75 12C21.75 17.3848 17.3848 21.75 12 21.75C6.61522 21.75 2.25 17.3848 2.25 12ZM12 4.25C7.71979 4.25 4.25 7.71979 4.25 12C4.25 16.2802 7.71979 19.75 12 19.75C16.2802 19.75 19.75 16.2802 19.75 12C19.75 7.71979 16.2802 4.25 12 4.25Z" />
    <path d="M12.9481 7.27271L12.782 13.3835H11.2223L11.0518 7.27271H12.9481ZM12.0021 16.1108C11.7209 16.1108 11.4794 16.0113 11.2777 15.8125C11.076 15.6108 10.9766 15.3693 10.9794 15.088C10.9766 14.8096 11.076 14.571 11.2777 14.3721C11.4794 14.1733 11.7209 14.0738 12.0021 14.0738C12.272 14.0738 12.5092 14.1733 12.7138 14.3721C12.9183 14.571 13.022 14.8096 13.0249 15.088C13.022 15.2755 12.9723 15.4474 12.8757 15.6037C12.782 15.7571 12.6584 15.8807 12.505 15.9744C12.3516 16.0653 12.1839 16.1108 12.0021 16.1108Z" />
</svg>
