<svg width="24" height="24" viewBox="0 0 24 24" fill="currentColor" xmlns="http://www.w3.org/2000/svg">
<path d="M2 2.76923C2 2.3444 2.3444 2 2.76923 2H12C17.5228 2 22 6.47715 22 12C22 17.5228 17.5228 22 12 22C6.47715 22 2 17.5228 2 12V2.76923Z" />
<path d="M12 18C12.6673 18 13.2133 17.46 13.2133 16.8C13.2133 16.14 12.6673 15.6 12 15.6C11.3327 15.6 10.7867 16.14 10.7867 16.8C10.7867 17.46 11.3327 18 12 18ZM12 13.2C12.6673 13.2 13.2133 12.66 13.2133 12V7.2C13.2133 6.54 12.6673 6 12 6C11.3327 6 10.7867 6.54 10.7867 7.2V12C10.7867 12.66 11.3327 13.2 12 13.2Z" fill="white"/>
</svg>
