<svg width="24" height="24" viewBox="0 0 60 60" fill="currentColor" xmlns="http://www.w3.org/2000/svg">
<path d="M33.9516 37.7772C32.729 36.9241 31.4224 36.229 30.056 35.6979C31.8737 34.0456 33.0795 31.7309 33.2894 29.1397C36.0459 26.4534 39.6592 24.9808 43.5326 24.9808C46.5565 24.9808 49.4599 25.8915 51.9295 27.614C52.8146 28.2313 54.0314 28.0146 54.6487 27.1295C55.2655 26.2447 55.0488 25.0273 54.1642 24.4104C52.9416 23.5573 51.6347 22.8626 50.2682 22.3311C52.274 20.5079 53.5352 17.8788 53.5352 14.961C53.5352 9.46832 49.0674 5 43.5753 5C38.0837 5 33.6159 9.46832 33.6159 14.961C33.6159 17.867 34.8667 20.4865 36.8588 22.309C36.586 22.4139 36.3148 22.525 36.0462 22.6432C34.824 23.1812 33.675 23.8427 32.6065 24.6195C31.1329 20.9581 27.5452 18.3668 23.3631 18.3668C17.8715 18.3668 13.4033 22.8351 13.4033 28.3274C13.4033 31.2254 14.6473 33.8377 16.6286 35.6594C11.3311 37.6444 7.03577 41.9079 5.28711 47.3453C4.70728 49.1483 5.01436 51.0605 6.12978 52.5915C7.2452 54.1221 8.97098 55 10.8646 55H27.8549C28.9333 55 29.8077 54.1256 29.8077 53.0466C29.8077 51.9681 28.9333 51.0937 27.8549 51.0937H10.8646C10.2333 51.0937 9.658 50.801 9.28607 50.2906C8.91414 49.7801 8.8119 49.1426 9.00493 48.5413C10.9352 42.5393 16.822 38.3476 23.3204 38.3476C26.3439 38.3476 29.2477 39.2583 31.7173 40.9808C32.6019 41.5981 33.8192 41.381 34.4364 40.4963C35.0533 39.6115 34.8366 38.3941 33.9516 37.7772V37.7772ZM43.5753 8.90635C46.9136 8.90635 49.6293 11.6224 49.6293 14.961C49.6293 18.2993 46.9136 21.0157 43.5753 21.0157C40.2375 21.0157 37.5214 18.2993 37.5214 14.961C37.5214 11.6224 40.2375 8.90635 43.5753 8.90635ZM23.3631 22.2728C26.7014 22.2728 29.417 24.9892 29.417 28.3274C29.417 31.6661 26.7014 34.3821 23.3631 34.3821C20.0249 34.3821 17.3092 31.6661 17.3092 28.3274C17.3092 24.9892 20.0249 22.2728 23.3631 22.2728V22.2728ZM55 45.7227C55 46.8012 54.1257 47.6756 53.0469 47.6756H47.6765V53.0466C47.6765 54.1256 46.8022 55 45.7238 55C44.645 55 43.7706 54.1256 43.7706 53.0466V47.6756H38.4003C37.3219 47.6756 36.4476 46.8012 36.4476 45.7227C36.4476 44.6437 37.3219 43.7693 38.4003 43.7693H43.7706V38.3983C43.7706 37.3198 44.645 36.4453 45.7238 36.4453C46.8022 36.4453 47.6765 37.3198 47.6765 38.3983V43.7693H53.0469C54.1257 43.7693 55 44.6437 55 45.7227V45.7227Z"/>
</svg>
