<svg width="24" height="24" viewBox="0 0 24 24" fill="currentColor" xmlns="http://www.w3.org/2000/svg">
<path fill-rule="evenodd" clip-rule="evenodd" d="M5.74678 5.0293C5.59806 4.79486 5.33622 4.63926 5.03805 4.63926C4.57483 4.63926 4.19933 5.01477 4.19933 5.47798V18.5247C4.19933 18.988 4.57483 19.3635 5.03805 19.3635C5.50126 19.3635 5.87677 18.988 5.87677 18.5247V8.24374L12.9443 18.8946C12.9975 18.9749 13.0587 19.0459 13.1254 19.1072C13.2325 19.2181 13.3698 19.2996 13.5241 19.3383C13.7531 19.4079 13.9939 19.3857 14.1902 19.2554C14.3021 19.1811 14.3873 19.08 14.4444 18.9627C14.5226 18.8352 14.5676 18.6853 14.5676 18.5248V5.47804C14.5676 5.01483 14.1921 4.63932 13.7289 4.63932C13.2657 4.63932 12.8902 5.01483 12.8902 5.47804V15.7793L5.83181 5.14214C5.80533 5.10224 5.7769 5.0646 5.74678 5.0293ZM20.4645 13.7455C20.9277 13.7455 21.3032 14.0524 21.3032 14.4309C21.3032 14.8095 20.9277 15.1164 20.4645 15.1164H16.8053C16.342 15.1164 15.9665 14.8095 15.9665 14.4309C15.9665 14.0524 16.342 13.7455 16.8053 13.7455H20.4645Z" />
<path d="M18.635 8.29338H18.635C17.3308 8.29338 16.2735 9.35064 16.2734 10.6548L16.2734 10.6552C16.2749 11.9586 17.3311 13.0148 18.6346 13.0163L18.6349 12.7163V13.0163C19.9391 13.0163 20.9963 11.9591 20.9963 10.6549C20.9963 9.35073 19.9392 8.29347 18.635 8.29338ZM17.1771 10.655C17.1781 9.85018 17.8303 9.19801 18.6351 9.197C19.4401 9.1971 20.0927 9.84981 20.0927 10.6549C20.0927 11.4601 19.44 12.1127 18.6349 12.1127H18.6349C17.8298 12.1127 17.1772 11.4601 17.1771 10.655Z" stroke-width="0.6"/>
</svg>
