<svg width="24" height="24" viewBox="0 0 24 24" fill="currentColor" xmlns="http://www.w3.org/2000/svg">
<path fill-rule="evenodd" clip-rule="evenodd" d="M2.25 12C2.25 6.61522 6.61522 2.25 12 2.25C17.3848 2.25 21.75 6.61522 21.75 12C21.75 17.3848 17.3848 21.75 12 21.75C6.61522 21.75 2.25 17.3848 2.25 12ZM12 4.25C7.71979 4.25 4.25 7.71979 4.25 12C4.25 16.2802 7.71979 19.75 12 19.75C16.2802 19.75 19.75 16.2802 19.75 12C19.75 7.71979 16.2802 4.25 12 4.25Z"/>
<path d="M10.9091 13.3835V13.2386C10.9119 12.7414 10.956 12.3451 11.0412 12.0497C11.1293 11.7542 11.2571 11.5156 11.4247 11.3338C11.5923 11.152 11.794 10.9872 12.0298 10.8395C12.206 10.7258 12.3636 10.6079 12.5028 10.4858C12.642 10.3636 12.7528 10.2287 12.8352 10.0809C12.9176 9.93037 12.9588 9.76276 12.9588 9.5781C12.9588 9.38207 12.9119 9.2102 12.8182 9.06247C12.7244 8.91475 12.598 8.80111 12.4389 8.72156C12.2827 8.64202 12.1094 8.60224 11.919 8.60224C11.7344 8.60224 11.5597 8.64344 11.3949 8.72582C11.2301 8.80537 11.0952 8.92469 10.9901 9.08378C10.8849 9.24003 10.8281 9.43463 10.8196 9.66759H9.08096C9.09517 9.0994 9.23153 8.63065 9.49005 8.26134C9.74858 7.88918 10.0909 7.61219 10.517 7.43037C10.9432 7.24571 11.4133 7.15338 11.9276 7.15338C12.4929 7.15338 12.9929 7.24713 13.4276 7.43463C13.8622 7.61929 14.2031 7.88776 14.4503 8.24003C14.6974 8.5923 14.821 9.01702 14.821 9.51418C14.821 9.84656 14.7656 10.142 14.6548 10.4005C14.5469 10.6562 14.3949 10.8835 14.1989 11.0824C14.0028 11.2784 13.7713 11.4559 13.5043 11.615C13.2798 11.7486 13.0952 11.8878 12.9503 12.0326C12.8082 12.1775 12.7017 12.3451 12.6307 12.5355C12.5625 12.7258 12.527 12.9602 12.5241 13.2386V13.3835H10.9091ZM11.7528 16.1108C11.4687 16.1108 11.2258 16.0113 11.0241 15.8125C10.8253 15.6108 10.7273 15.3693 10.7301 15.088C10.7273 14.8096 10.8253 14.571 11.0241 14.3721C11.2258 14.1733 11.4687 14.0738 11.7528 14.0738C12.0227 14.0738 12.2599 14.1733 12.4645 14.3721C12.669 14.571 12.7727 14.8096 12.7756 15.088C12.7727 15.2755 12.723 15.4474 12.6264 15.6037C12.5327 15.7571 12.4091 15.8807 12.2557 15.9744C12.1023 16.0653 11.9347 16.1108 11.7528 16.1108Z"/>
</svg>
