<svg width="30" height="30" viewBox="0 0 30 30" fill="none" xmlns="http://www.w3.org/2000/svg">
<path d="M19.668 17.7936C19.4804 17.6056 19.2258 17.5 18.9602 17.5H18.3875L18.0375 17.1625C19.2625 15.7375 20 13.8875 20 11.875C20 7.3875 16.3625 3.75 11.875 3.75C7.3875 3.75 3.75 7.3875 3.75 11.875C3.75 16.3625 7.3875 20 11.875 20C13.8875 20 15.7375 19.2625 17.1625 18.0375L17.5 18.3875V18.9602C17.5 19.2258 17.6056 19.4804 17.7936 19.668L23.0429 24.9068C23.4335 25.2967 24.0662 25.2963 24.4564 24.9061L24.9061 24.4564C25.2963 24.0662 25.2967 23.4335 24.9068 23.0429L19.668 17.7936ZM11.875 17.5C8.7625 17.5 6.25 14.9875 6.25 11.875C6.25 8.7625 8.7625 6.25 11.875 6.25C14.9875 6.25 17.5 8.7625 17.5 11.875C17.5 14.9875 14.9875 17.5 11.875 17.5Z" fill="#4262D1"/>
</svg>
