<svg width="24" height="24" viewBox="0 0 24 24" fill="currentColor" xmlns="http://www.w3.org/2000/svg">
<path d="M20 2H4C2.9 2 2 2.9 2 4V22L6 18H20C21.1 18 22 17.1 22 16V4C22 2.9 21.1 2 20 2ZM20 16H5.17L4 17.17V4H20V16Z" />
<path d="M6 10.6544L7.09022 10.5831C7.11383 10.7678 7.16189 10.9085 7.2344 11.0053C7.35245 11.1618 7.52108 11.2401 7.7403 11.2401C7.90388 11.2401 8.02951 11.2005 8.1172 11.1214C8.20658 11.0405 8.25126 10.9472 8.25126 10.8417C8.25126 10.7414 8.20911 10.6517 8.12479 10.5726C8.04047 10.4934 7.84486 10.4186 7.53794 10.3483C7.03541 10.2304 6.67707 10.0739 6.4629 9.87863C6.24705 9.68338 6.13912 9.43448 6.13912 9.13193C6.13912 8.93316 6.19393 8.74582 6.30354 8.56992C6.41484 8.39226 6.58094 8.2533 6.80185 8.15303C7.02445 8.05101 7.32884 8 7.71501 8C8.18887 8 8.54975 8.09235 8.79764 8.27704C9.04722 8.45998 9.19562 8.75198 9.24283 9.15303L8.16273 9.219C8.13406 9.04485 8.07336 8.91821 7.98061 8.83905C7.88954 8.75989 7.76307 8.72032 7.60118 8.72032C7.46796 8.72032 7.36762 8.75022 7.30017 8.81003C7.23272 8.86807 7.19899 8.93931 7.19899 9.02375C7.19899 9.08531 7.22681 9.14072 7.28246 9.18997C7.33642 9.24099 7.46459 9.28848 7.66695 9.33245C8.16779 9.44503 8.52614 9.55937 8.74199 9.67546C8.95953 9.7898 9.1172 9.93228 9.21501 10.1029C9.3145 10.2735 9.36425 10.4644 9.36425 10.6755C9.36425 10.9235 9.29848 11.1522 9.16695 11.3615C9.03541 11.5708 8.8516 11.73 8.61551 11.8391C8.37943 11.9463 8.08179 12 7.7226 12C7.09191 12 6.65514 11.8734 6.41231 11.6201C6.16948 11.3668 6.03204 11.0449 6 10.6544Z" />
<path d="M9.93086 8.06596H11.4384L12.0202 10.4195L12.5995 8.06596H14.102V11.934H13.1661V8.98417L12.4401 11.934H11.5927L10.8693 8.98417V11.934H9.93086V8.06596Z" />
<path d="M14.6358 10.6544L15.726 10.5831C15.7496 10.7678 15.7976 10.9085 15.8702 11.0053C15.9882 11.1618 16.1568 11.2401 16.3761 11.2401C16.5396 11.2401 16.6653 11.2005 16.753 11.1214C16.8423 11.0405 16.887 10.9472 16.887 10.8417C16.887 10.7414 16.8449 10.6517 16.7605 10.5726C16.6762 10.4934 16.4806 10.4186 16.1737 10.3483C15.6712 10.2304 15.3128 10.0739 15.0987 9.87863C14.8828 9.68338 14.7749 9.43448 14.7749 9.13193C14.7749 8.93316 14.8297 8.74582 14.9393 8.56992C15.0506 8.39226 15.2167 8.2533 15.4376 8.15303C15.6602 8.05101 15.9646 8 16.3508 8C16.8246 8 17.1855 8.09235 17.4334 8.27704C17.683 8.45998 17.8314 8.75198 17.8786 9.15303L16.7985 9.219C16.7698 9.04485 16.7091 8.91821 16.6164 8.83905C16.5253 8.75989 16.3988 8.72032 16.2369 8.72032C16.1037 8.72032 16.0034 8.75022 15.9359 8.81003C15.8685 8.86807 15.8347 8.93931 15.8347 9.02375C15.8347 9.08531 15.8626 9.14072 15.9182 9.18997C15.9722 9.24099 16.1003 9.28848 16.3027 9.33245C16.8035 9.44503 17.1619 9.55937 17.3777 9.67546C17.5953 9.7898 17.753 9.93228 17.8508 10.1029C17.9503 10.2735 18 10.4644 18 10.6755C18 10.9235 17.9342 11.1522 17.8027 11.3615C17.6712 11.5708 17.4874 11.73 17.2513 11.8391C17.0152 11.9463 16.7175 12 16.3583 12C15.7277 12 15.2909 11.8734 15.0481 11.6201C14.8052 11.3668 14.6678 11.0449 14.6358 10.6544Z" />
</svg>
