<svg width="24" height="24" viewBox="0 0 24 24" fill="currentColor" xmlns="http://www.w3.org/2000/svg">
<path d="M24 12C24 18.6274 18.6274 24 12 24C5.37258 24 0 18.6274 0 12C0 5.37258 5.37258 0 12 0C18.6274 0 24 5.37258 24 12ZM0.6 12C0.6 18.296 5.70395 23.4 12 23.4C18.296 23.4 23.4 18.296 23.4 12C23.4 5.70395 18.296 0.6 12 0.6C5.70395 0.6 0.6 5.70395 0.6 12Z"/>
<path fill-rule="evenodd" clip-rule="evenodd" d="M16.6857 8.97855C16.8816 9.17313 16.8827 9.48971 16.6881 9.68565L10.7298 15.6857C10.6359 15.7802 10.5082 15.8333 10.375 15.8333C10.2418 15.8333 10.1141 15.7802 10.0202 15.6857L7.31188 12.9584C7.1173 12.7624 7.11841 12.4459 7.31435 12.2513C7.51029 12.0567 7.82687 12.0578 8.02145 12.2537L10.375 14.6238L15.9785 8.98101C16.1731 8.78507 16.4897 8.78397 16.6857 8.97855Z" />
</svg>
