<svg width="24" height="24" viewBox="0 0 24 24" fill="currentColor" xmlns="http://www.w3.org/2000/svg">
<path d="M17.8194 14.3193C17.6689 14.3193 17.5223 14.3801 17.4159 14.4865C17.3096 14.5928 17.2487 14.7389 17.2487 14.89C17.2487 15.0404 17.3094 15.187 17.4159 15.2934C17.5223 15.3997 17.6688 15.4606 17.8194 15.4606C17.9702 15.4606 18.1162 15.3999 18.2224 15.2938C18.3298 15.187 18.39 15.0401 18.39 14.89C18.39 14.7398 18.3298 14.5929 18.2225 14.4862C18.1162 14.38 17.9702 14.3193 17.8194 14.3193Z" fill="currentColor"/>
<path fill-rule="evenodd" clip-rule="evenodd" d="M13.7617 2.44328L14.9807 3.66226C15.3254 3.57727 15.6878 3.57983 16.0395 3.67405C16.5891 3.82129 17.0491 4.17433 17.3335 4.66698L19.073 7.67986C20.1242 7.95362 20.9028 8.90997 20.9028 10.0463V12.6008H21.1135C21.8591 12.6008 22.4654 13.2072 22.4654 13.9528V15.8278C22.4654 16.5734 21.8591 17.1798 21.1135 17.1798H20.9028V19.7343C20.9028 21.083 19.8058 22.18 18.4571 22.18H13.2616L13.2569 22.18L13.2523 22.18H4.55028C3.20155 22.18 2.10455 21.083 2.10455 19.7343V10.0463C2.10455 8.69762 3.20155 7.60062 4.55028 7.60062H5.59065L10.7479 2.44328C11.579 1.6122 12.9307 1.6123 13.7617 2.44328ZM15.7442 4.77646C15.9999 4.84497 16.2128 5.00837 16.3452 5.23761L17.7095 7.60062H10.2728L14.9931 4.87532C15.2223 4.743 15.4884 4.70792 15.7442 4.77646ZM7.20469 7.60062L11.555 3.25032C11.7421 3.06314 11.9901 2.96041 12.2548 2.96041C12.5196 2.96041 12.7676 3.06314 12.9547 3.25032L13.8956 4.19117L7.99024 7.60062H7.20469ZM19.7616 17.1798V19.7343C19.7616 20.4534 19.1762 21.0387 18.4571 21.0387H13.2616L13.2569 21.0387L13.2523 21.0387H4.55028C3.83117 21.0387 3.24584 20.4534 3.24584 19.7343V10.0463C3.24584 9.32724 3.83117 8.7419 4.55028 8.7419H18.4571C19.1762 8.7419 19.7616 9.32724 19.7616 10.0463V12.6008H17.0508C15.7883 12.6008 14.7613 13.6278 14.7613 14.8903C14.7613 16.1528 15.7883 17.1798 17.0508 17.1798H19.7616ZM21.1135 13.7421C21.2295 13.7421 21.3241 13.8368 21.3241 13.9528V15.8278C21.3241 15.9438 21.2295 16.0385 21.1135 16.0385H17.0508C16.4178 16.0385 15.9026 15.5233 15.9026 14.8903C15.9026 14.2573 16.4178 13.7421 17.0508 13.7421H21.1135Z" fill="currentColor"/>
</svg>
